<svg xmlns="http://www.w3.org/2000/svg" viewBox="0 0 894.13 633.72"><defs><style>.cls-1{fill:#f9a930;}.cls-2{fill:#f89021;}.cls-3{fill:#f7c532;}.cls-4{fill:#dd5f25;}.cls-5{fill:#e89c7c;}.cls-6{fill:#f27322;}.cls-7{fill:#df815f;}.cls-8{fill:#c6744f;}.cls-9{fill:#231a2d;}.cls-10{fill:#322a3f;}.cls-11{fill:#22192c;}.cls-12{fill:#31293e;}.cls-13{fill:#d53d3c;}.cls-14{fill:#1a1624;}.cls-15{fill:#fefefe;}.cls-16{fill:#fcfcfc;}.cls-17{fill:#f6ac93;}.cls-18{fill:#e2d6c8;}.cls-19{fill:#e0d7c9;}.cls-20{fill:#ba613f;}.cls-21{fill:#f9a931;}.cls-22{fill:#4d4f4e;}.cls-23{fill:#fffffe;}.cls-24{fill:#606261;}.cls-25{fill:#df8260;}.cls-26{fill:#fefefd;}.cls-27{fill:#9b9b9b;}.cls-28{fill:#f6ab93;}.cls-29{fill:#fa9c2a;}.cls-30{fill:#e6c0af;}.cls-31{fill:#7e993c;}.cls-32{fill:#df7d5c;}.cls-33{fill:#6c873a;}.cls-34{fill:#c87652;}.cls-35{fill:#4f5150;}.cls-36{fill:#cb7854;}.cls-37{fill:#c77450;}.cls-38{fill:#de7d5c;}.cls-39{fill:#df815e;}.cls-40{fill:#d9d9d9;}.cls-41{fill:#f89726;}</style></defs><g id="Layer_2" data-name="Layer 2"><g id="Layer_1-2" data-name="Layer 1"><path class="cls-1" d="M215,48.91C226.87,32.84,238.11,16.28,249.71,0a37.81,37.81,0,0,1,3.5,2.44c-.94,2.34,1.17,4.18,2.26,6,5.72,7.7,10.8,15.84,16.43,23.6,3.23,5.12,7.2,9.74,10.06,15.09-22-.07-43.91,4.72-64.24,13.07-4.91,1.76-9.33,4.67-14.4,6C206.77,60.15,211.48,54.94,215,48.91Z"/><path class="cls-1" d="M256.35,65.8c16.82-2.8,34-5.13,51-3.73,8.32.51,16.71,1.91,24.36,5.37-.42,1.33-.84,2.65-1.3,4-18.58-3.3-37.89-4.52-56.38,0-.77,6.23-1.21,12.51-2.45,18.68-22.24-.61-43.27,8.37-62.66,18.37-4.54-6.36-9.69-12.33-13.87-18.91,4.69-5.17,11.13-8.23,17.28-11.29C226.37,72.06,241.36,68.61,256.35,65.8Z"/><path class="cls-1" d="M245.49,101.84c23.6-5.25,48.53-7.68,72.19-1.39,11.87,3.69,23.52,9.58,31.68,19.2,2.59,3.28,6.68,4.63,10.09,6.84,15.11,9.26,26.8,23.6,33.8,39.81-1.13,1.41-2.23,2.85-3.25,4.35-4.05-8-7.58-16.39-13.25-23.44-11.32-15.44-28.32-26.25-46.69-31.29-13.74-3.66-28.13-5.45-42.33-4.06-15.57.75-30.92,3.79-46,7.41-21.24,6-42.19,15.13-58.23,30.64-2.89,2.51-4.92,6-8.2,8,4.18-20,20.09-35.2,37.6-44.33A144.24,144.24,0,0,1,245.49,101.84Z"/><path class="cls-1" d="M212.75,141.41c32.33-15.49,70.14-19.77,105-11.17a6.13,6.13,0,0,1,3.8,2.25c8.59,10,13.53,23.5,11.83,36.73-1.53,11-7,21.13-14,29.66-11.44-2.22-23.09-3-34.72-3.42q-13.41.45-26.77,1.75c-.41-12.74-8.86-23.13-17-32.14A260.2,260.2,0,0,0,212.75,141.41Z"/><path class="cls-1" d="M171.67,164.52c8.4-4.32,15.48-11,24.29-14.55-6.58,15.87-15.36,31.65-15.54,49.29-.39,7,2,14.32,7.49,18.86,2.07,2.18,5.28,2.59,7.5,4.5-5.06,4.36-10.51,8.38-14.62,13.73-7.72,8.05-13.24,17.79-18.95,27.27-.18-.64-.55-1.92-.73-2.57-1.57-6-2.6-12.11-4-18.13-.22-1.45-.45-2.89-.68-4.33,0-2.43,0-4.87-.21-7.29a114.6,114.6,0,0,1,3-39.65C161.91,182.09,165.39,172.37,171.67,164.52Z"/><path class="cls-1" d="M199.47,178.19A107.67,107.67,0,0,1,209.59,157a92.61,92.61,0,0,1,18,14.34c4.37,4.57,9.37,10.06,8.88,16.85-.51,5.55-6.07,8.56-10.77,10.21-6.33,1.91-13.08,3.94-19.71,2.44a10.31,10.31,0,0,1-8.13-7.58C196.59,188.2,198,183,199.47,178.19Z"/><path class="cls-1" d="M357.62,361.79c2.81-1.89,5.56-3.86,8.36-5.75a95,95,0,0,1-9.6,40.82,2.2,2.2,0,0,0-2.64,1.4A74.71,74.71,0,0,1,326.46,423c-2.18,1.49-4.63-.1-6.91-.42-5-1.24-9.79,1.28-14.22,3.3-2.26,1.12-4.73.23-7-.3,7.48-11.78,11-25.81,11.08-39.7l3.06.28a76.59,76.59,0,0,0,9.66,1.34c2.76.22,5.56-.48,5.87-3.67a60.92,60.92,0,0,0,1.66-7.67C339.42,372.3,349.23,368.2,357.62,361.79Z"/><path class="cls-1" d="M174.36,364.7c2.1-1.46,4-3.14,6-4.74q1.11.78,2.22,1.62a49.5,49.5,0,0,0-3,11h-.09A26.31,26.31,0,0,0,174.36,364.7Z"/><path class="cls-1" d="M398.54,398.63c7.68-7.69,17.08-13.29,26.51-18.53a176.89,176.89,0,0,1,19.27,24.39,54.45,54.45,0,0,0-24.63,7.62c-5.07,2.86-9.48,6.69-14.06,10.25a129.1,129.1,0,0,1-7.5-23.32Z"/><path class="cls-1" d="M315.06,431.55c6.1-1.34,13.31,4.14,12.72,10.67.13,3.63-2.52,6.72-5.4,8.6-6.86,4.32-17.1-2.58-15.71-10.58A11.21,11.21,0,0,1,315.06,431.55Z"/><path class="cls-1" d="M362.6,489.15q9.94-13.87,20.19-27.55a83.47,83.47,0,0,0,37.35,21.13l-.47.59a55.72,55.72,0,0,1-9,8.87,206.47,206.47,0,0,1-27.93,19.57A74.17,74.17,0,0,1,362.6,489.15Z"/><path class="cls-1" d="M286.4,572.78c2.59.28,5.18.58,7.79.79a75.15,75.15,0,0,0,8.21-.27c3,3.38,6.86,5.91,10.06,9.13q7.8,7.76,15.56,15.55a17.35,17.35,0,0,1,2.91,4.07c-5.41.24-10.83.08-16.22.54-1.19-.09-2.78.53-3.59-.66C302.88,592.21,294.45,582.65,286.4,572.78Z"/><path class="cls-2" d="M255.47,8.44c-1.09-1.82-3.2-3.66-2.26-6,13,9.83,25.72,20.1,39,29.55,7.54,6.8,16.44,11.94,23.58,19.19l-3-.14c-1.87,3.64-3.72,7.29-5.39,11-17.08-1.4-34.22.93-51,3.73-15,2.81-30,6.26-44,12.47-1.8-1.91-3.65-3.77-5.44-5.69-1.56-1.67-3-3.46-4.41-5.24l.8-1.14c5.07-1.33,9.49-4.24,14.4-6,20.33-8.35,42.22-13.14,64.24-13.07-2.86-5.35-6.83-10-10.06-15.09C266.27,24.28,261.19,16.14,255.47,8.44Z"/><path class="cls-2" d="M274.07,71.42c18.49-4.54,37.8-3.32,56.38,0C326,81,322.26,90.92,317.68,100.45c-23.66-6.29-48.59-3.86-72.19,1.39a144.24,144.24,0,0,0-32.63,11.76c-1.3-1.71-2.61-3.42-3.9-5.13,19.39-10,40.42-19,62.66-18.37C272.86,83.93,273.3,77.65,274.07,71.42Z"/><path class="cls-2" d="M287.73,111.86c14.2-1.39,28.59.4,42.33,4.06,18.37,5,35.37,15.85,46.69,31.29,5.67,7,9.2,15.43,13.25,23.44a92,92,0,0,0-14.5,37.16c-3.29,12.75-1.9,26-2.18,39a39.9,39.9,0,0,0-2.4-4.17c-11.37-15.36-27.87-26.47-45.68-33.06-21.57-7.74-45.16-8.86-67.61-4.73-4,.39-5.7,4.52-8.79,6.51-9.21,6.32-20.28,8.95-31.07,11.14-3.7.81-7.92.26-11,2.77a204.59,204.59,0,0,0-34.16,29.81c-1.57,1.37-1.16,3.58-1.27,5.43.72,11.06,1.57,22.13,1.68,33.23-1.08-1.76-2.08-3.55-3-5.37-1.33-4.44-3.08-8.73-4.75-13.05-1.21-3.87-2.19-7.81-3.35-11.7,5.71-9.48,11.23-19.22,18.95-27.27,4.11-5.35,9.56-9.37,14.62-13.73-2.22-1.91-5.43-2.32-7.5-4.5-5.53-4.54-7.88-11.88-7.49-18.86.18-17.64,9-33.42,15.54-49.29-8.81,3.56-15.89,10.23-24.29,14.55,1.32-2.13,2.41-4.38,3.59-6.59,3.28-2.07,5.31-5.51,8.2-8,16-15.51,37-24.69,58.23-30.64C256.81,115.65,272.16,112.61,287.73,111.86Zm-75,29.55A260.2,260.2,0,0,1,241,165.07c8.15,9,16.6,19.4,17,32.14q13.35-1.32,26.77-1.75c11.63.44,23.28,1.2,34.72,3.42,7-8.53,12.42-18.65,14-29.66,1.7-13.23-3.24-26.72-11.83-36.73a6.13,6.13,0,0,0-3.8-2.25C282.89,121.64,245.08,125.92,212.75,141.41Zm-6.84,2.67A237.27,237.27,0,0,0,194.47,166c-4.25,10.57-8.82,21.67-7.76,33.29A16.54,16.54,0,0,0,196,213c6,3.25,13.09,2.58,19.61,1.92,9.07-1.59,18.21-4,26.16-8.74,4.32-2.84,8.05-7.46,8.17-12.83.24-7-3.37-13.37-7.62-18.62-3.89-4.47-7.36-9.38-12.21-12.88-6.57-6.22-13.94-11.5-21.29-16.73A5.47,5.47,0,0,0,205.91,144.08Z"/><path class="cls-2" d="M179.57,372.54a49.5,49.5,0,0,1,3-11,28.3,28.3,0,0,1,3.81,4.84c.53,2.13,1.08,4.24,1.64,6.36C185.22,372.74,182.39,372.67,179.57,372.54Z"/><path class="cls-2" d="M312.52,378.13c.61-4.84,1.83-9.92,5.31-13.55a33.77,33.77,0,0,0,4.32,9.12,32,32,0,0,0,0,13.77,76.59,76.59,0,0,1-9.66-1.34C312.42,383.46,312.36,380.79,312.52,378.13Z"/><path class="cls-2" d="M382.68,418.53A88,88,0,0,1,398.13,399a129.1,129.1,0,0,0,7.5,23.32l.21.45a83.64,83.64,0,0,0-13.59,14.6C389.11,431.09,385.88,424.82,382.68,418.53Z"/><path class="cls-2" d="M419.67,483.32c8,1.68,15.86,4.11,23.88,5.82a105,105,0,0,1-12.23,12.55,153.2,153.2,0,0,1-30.44,21.19,112.89,112.89,0,0,1-18.17-11.12,206.47,206.47,0,0,0,27.93-19.57A55.72,55.72,0,0,0,419.67,483.32Z"/><path class="cls-3" d="M292.21,32l3.54-.24A156.23,156.23,0,0,1,402,83a154.05,154.05,0,0,1,32.38,56.06c-5.12,2-10.28,3.85-15.2,6.26a139.88,139.88,0,0,0-52-71.49,137,137,0,0,0-51.32-22.69C308.65,43.93,299.75,38.79,292.21,32Z"/><path class="cls-3" d="M201.18,56.59c4.48-2.76,8.86-5.8,13.8-7.68-3.5,6-8.21,11.24-11.66,17.29l-.8,1.14c1.42,1.78,2.85,3.57,4.41,5.24a139.4,139.4,0,0,0-50.54,166c.23,1.44.46,2.88.68,4.33-6.92-7.46-14.28-14.59-22.93-20-3.68-17.27-5.07-35.12-3-52.7C135.9,124.36,162.46,81.49,201.18,56.59Z"/><path class="cls-4" d="M312.78,51l3,.14a137,137,0,0,1,51.32,22.69,139.88,139.88,0,0,1,52,71.49,76.48,76.48,0,0,0-25.89,20.94c-7-16.21-18.69-30.55-33.8-39.81-3.41-2.21-7.5-3.56-10.09-6.84-8.16-9.62-19.81-15.51-31.68-19.2,4.58-9.53,8.33-19.44,12.77-29,.46-1.31.88-2.63,1.3-4-7.65-3.46-16-4.86-24.36-5.37C309.06,58.33,310.91,54.68,312.78,51Z"/><path class="cls-4" d="M151.93,149.31a139.71,139.71,0,0,1,55-76.73c1.79,1.92,3.64,3.78,5.44,5.69-6.15,3.06-12.59,6.12-17.28,11.29,4.18,6.58,9.33,12.55,13.87,18.91,1.29,1.71,2.6,3.42,3.9,5.13-17.51,9.13-33.42,24.37-37.6,44.33-1.18,2.21-2.27,4.46-3.59,6.59-6.28,7.85-9.76,17.57-12.53,27.13a114.6,114.6,0,0,0-3,39.65c.2,2.42.16,4.86.21,7.29A139.21,139.21,0,0,1,151.93,149.31Z"/><path class="cls-5" d="M434.34,139.1c2.17-.46,4.37-.8,6.52-1.46,5.43,4.83,7.5,12.26,7.83,19.3-23.79,11.07-44.05,29.9-56,53.31-2.9,5.8-5.5,12.15-10.68,16.33-1.74,1.38-3.8-.72-4.35-2.36-1.85-5.26-1.16-11-2.12-16.41A92,92,0,0,1,390,170.65c1-1.5,2.12-2.94,3.25-4.35a76.48,76.48,0,0,1,25.89-20.94C424.06,143,429.22,141.05,434.34,139.1Z"/><path class="cls-5" d="M430.13,184.64c4.79-2.83,9.84-5.42,15.38-6.35a12.76,12.76,0,0,0,2.06,3.08c13.14,13.54,23,30.64,26.5,49.3a78.9,78.9,0,0,1-5.93,46.92c-7,15.68-18,29.17-30.41,40.87,1.22,4.19,2.32,8.65,1.29,13a12.42,12.42,0,0,1-7.75,8.52c-5.45-1.39-11.14-3-15.25-7.11-6.25-6.1-8.38-15.1-8.92-23.53A70.94,70.94,0,0,1,419,269.45c9.59-14.21,17.23-30.79,16-48.34,6.69,6.92,6.51,17.29,5.47,26.2-1.63,11.7-5.28,23-9.67,33.95-1.42,3.7-3.38,7.21-4.18,11.12,6.61-9.37,11.28-20,15.92-30.44,5.45-13.25,9.86-27.51,8.71-42-.94-9-5.12-18.08-12.31-23.8-3.51-3-8.26-3.09-12.6-3.59,1.94-1.32,3.84-2.71,5.66-4.21a35.1,35.1,0,0,0-10.14,4.16l-1.5-.2C423.05,189.11,426.59,186.81,430.13,184.64Z"/><path class="cls-5" d="M70,218.29a67.79,67.79,0,0,1,30.76-5.89c11.85.28,23.31,4.43,33.4,10.48,8.65,5.45,16,12.58,22.93,20,1.44,6,2.47,12.14,4,18.13-6.4-.91-11.72-4.7-17-8.09a104.15,104.15,0,0,0-65.52-15.13c-1.5.22-3,.59-4.44.94C70.85,232.58,68.21,225.33,70,218.29Z"/><path class="cls-5" d="M179.52,253.08c25.29-22.27,57.33-37.85,91.25-40.08,9.09-.14,18.47-1,27.27,1.89,8,2.34,15.18,7.08,21.35,12.66,13,12.72,20.36,29.95,24.77,47.32,4.63,19.84,5.58,40.81,1,60.76-2.9,11.92-8.12,24.74-19.39,31-2-1.15-4-2.38-6-3.71L315.54,360c2.54-12.08,2.94-25.12-1.44-36.81-.45,12.3-1.92,25.21-8.9,35.72a31.2,31.2,0,0,1-13.1,10.77c1,14.33-2.07,29.5-11.09,41-8.11,11-21.45,16.7-34.57,19.08-3.73-7.5-7.35-15-10.8-22.67,3.86-6-1.54-12.93-7.35-14.89-1.86-3.39-3.65-6.82-5.57-10.17,10.36.77,19.86,5.18,29.28,9.2-.75-1.22-1.49-2.44-2.31-3.6a40.75,40.75,0,0,0-22.86-16.53c-9.13-2.78-18.85-1.82-28,.27-5.29-10.15-9.25-21.48-8.22-33.09.17-5.29,2-10.27,3.83-15.18-5.33,4.35-9.4,10.57-10.29,17.48a59.05,59.05,0,0,0,.48,16.15c-1.43,1.07-2.85,2.16-4.24,3.28-2,1.6-3.92,3.28-6,4.74a80.63,80.63,0,0,1-7.19,4.19,22.64,22.64,0,0,0-6.1-2.31L159.31,369l.78-1.8-1.42-1c-21-5.18-41.42-15.8-54.69-33.29-16.5-21.54-20.63-50.48-16.07-76.73l-1.11-1.56c9.16-3.66,19.31-3.81,28.89-1.91-1.72.43-3.43.87-5.16,1.22a38.51,38.51,0,0,0-7.89,1.76c2.41.2,4.82.3,7.25.4-2.62,2.06-5.64,4-7,7.17-3.35,7.31-2.61,15.79-.5,23.35,4.05,12.53,13.66,22.15,23.26,30.71a199.15,199.15,0,0,0,23.51,16.43c3.53,2.1,6.92,4.54,10.91,5.72-3.19-3.45-7.34-5.74-10.91-8.74-9.17-7.4-18.05-15.42-25-25-4-6-8.17-13.34-6.1-20.82,5.61,11.85,16.1,20.53,27.34,26.81,6.9,4.06,14.58,6.83,20.89,11.86a68.76,68.76,0,0,0,6.07,4.66c.73-11.52,1-23.05.65-34.58-.11-11.1-1-22.17-1.68-33.23C174.21,258.23,176.77,255.55,179.52,253.08Zm88.76-29.34a22.21,22.21,0,0,0-1.81,4c-.09-.9-.28-2.69-.37-3.59-3.25,1.73-4.41,5.34-6.3,8.22.26-2.76,1.55-5.24,2.52-7.8-5.56,4.09-5.62,11.73-5.39,18a34,34,0,0,0,6-1.69c3.7-.7,7.45-1.1,11.19-1.53l1.35.27c10.7-.58,21.3,1.33,31.76,3.39,1.15-4-.63-7.85-3.87-10.27-.54-2.32-3.2-2.9-4.93-4.09-4.42-2.18-9.34-4.79-14.21-4.76l-2.08-.54A34,34,0,0,0,268.28,223.74ZM237,227.26c.05,4.3,1,9.84-2.36,13.1-3.34-3.49-4.57-8.65-8.28-11.8.11,4.78.77,9.53.81,14.32-4.87-1.37-6.87-6.38-9.59-10.1a27.46,27.46,0,0,0,5.7,16.87c2.49,3.14,6.16,6.15,10.45,5.47,3.57-.4,5.73-3.94,6.63-7.11C242.21,241,240.56,233.45,237,227.26ZM204.1,245.69a43.18,43.18,0,0,0,4.61,4.46c-2.62-1.19-5.06-2.82-7.88-3.53l.72,2.61c-1.15-.62-2.32-2.09-3.73-1.39a28.71,28.71,0,0,0-10.82,6.4l-.24-.08c-4.72,4.7-9.77,10.12-10.22,17.12a5.49,5.49,0,0,0,2.69,6,95.24,95.24,0,0,1,20.87-15.44,54.8,54.8,0,0,1,14.52-5.16C212.81,251.83,209.3,247,204.1,245.69Zm76,5c-10.83,1.77-18.6,14-15.22,24.49a19.86,19.86,0,0,0,14.91,14.17c4.45,1.32,9.13-.07,13.25-1.83,8.29-4.16,12.37-14.5,9.76-23.29C300.13,254.75,289.64,248.55,280.08,250.66Zm-88.73,23.2c-5.75,4.69-6.48,14.07-2.07,19.9,3.42,4.57,10.47,7.95,15.78,4.67l.39-.22,2.1,0c8.52-3,11.43-14.86,6-21.89C209,269,197.45,267.65,191.35,273.86ZM241,304.65a47.94,47.94,0,0,0-19.33,7.55c-10.3,6.48-19.21,15.73-23.9,27.07-1.49,4.06-2.65,9.67,1.09,12.89,5.56,5.19,13.73,4.9,20.81,5.71,17-.06,34,.16,51,.1a73.22,73.22,0,0,0,18.7-2.22c3.09-1.15,6.77-2.43,8.06-5.79,2-4.2.16-8.93-1.38-13a58.78,58.78,0,0,0-18.21-21.88C267.65,306.91,254.13,302.47,241,304.65Z"/><path class="cls-5" d="M380,334.53c2.49-4.5,4.05-9.47,7-13.75-1,8.23-5.19,15.78-9.83,22.52l1.12,1.76c2.61,4.89,6.05,9.36,7.6,14.8A53,53,0,0,1,383,395.4c-8.53,6.94-19.75,9.21-30.52,8.66,1.4-2.34,2.65-4.78,3.9-7.2A95,95,0,0,0,366,356c-2.8,1.89-5.55,3.86-8.36,5.75a18.81,18.81,0,0,1,4.64-5.06C369.72,350.73,375.14,342.68,380,334.53Z"/><path class="cls-5" d="M396,355.18a164.21,164.21,0,0,1,29.06,24.92c-9.43,5.24-18.83,10.84-26.51,18.53C395.29,384.44,394.89,369.65,396,355.18Z"/><path class="cls-5" d="M419.69,412.11a54.45,54.45,0,0,1,24.63-7.62l.2,0c8.86,14.67,18.38,30.81,16.43,48.65-12.21.88-25.2-.48-35.64-7.36-8.7-5.41-15.1-13.8-19.47-22.95l-.21-.45C410.21,418.8,414.62,415,419.69,412.11Z"/><path class="cls-5" d="M338.49,420.9c12.25,1.37,24.53-1.16,35.79-5.94a81.19,81.19,0,0,1,15.48,36.55c1.63-1.83,3.15-3.75,4.71-5.64l1.56-1.8c9.71-2.39,21.26.18,27.47,8.46,3,4.23,5.68,9.29,4.95,14.65-.58,6.09-4.52,11-8.31,15.55a83.47,83.47,0,0,1-37.35-21.13q-10.25,13.66-20.19,27.55a52.78,52.78,0,0,0-10.59-3c-.85,3.12-1.35,7-4.62,8.62-6.36,3.15-13.38.51-19.9-.52,1.21,5.11,7.14,4.8,11.1,6.35A78.72,78.72,0,0,0,328,510.46a72.34,72.34,0,0,0,10.72,5c-3.54,4.16-6.89,8.77-8.26,14.15,4.31-3.51,6.8-8.61,10.46-12.71A84.37,84.37,0,0,1,354,523a33,33,0,0,0-2.57,4.42,16.56,16.56,0,0,0,6-3.1,36.9,36.9,0,0,0,6.23,3.77,17.77,17.77,0,0,0-2.43,4.7c1.75-.82,3.45-1.74,5.12-2.69-.21,2.69-3.23,3.3-5.29,4.06l.53-1.5a64.31,64.31,0,0,0-5.73,3.77c-3.79.13-7.59,0-11.37-.18,1.68-2.4,3.46-4.73,5.14-7.13a88.75,88.75,0,0,1-9.48,6.61c-6.09-2.71-12.42-6.21-15.89-12.13,0-2.55.92-5,1.46-7.43-12.21,2-24.63,3.81-37,2.23-10.57-21.3-20.56-42.88-30.84-64.31,13.65-4,26.55-11.12,35.77-22.13l5.15,1.28a47.41,47.41,0,0,0-1.47,8.11A19.69,19.69,0,0,0,308.79,459a20.23,20.23,0,0,0,19.58-1.17,18.91,18.91,0,0,0,8.35-19.65c-.74-4.19-3.44-7.61-6-10.84C333.31,425.22,336,423.15,338.49,420.9Z"/><path class="cls-5" d="M339.91,499.7c5.47-2.17,10.85-5,16.84-5.34,2.69-.38,5.09,1.2,7.13,2.74a52.81,52.81,0,0,1,8.82,8.14c4,4.7,8.47,9.37,10.55,15.34.59,1.9.81,5-1.55,5.72-3.64.71-7.09-1.3-10.28-2.77a192.71,192.71,0,0,1-22.31-15.62C345.92,505.31,342.44,503,339.91,499.7Z"/><path class="cls-5" d="M45.52,536.37c-2.31-9.69,2-19.27,5.72-28a6.24,6.24,0,0,0,1.8,3.57c2.78,3.05,5.18,6.41,7.77,9.63q2,4.62,3.85,9.37c.56,5.39,1.43,10.8,1,16.24-.26,4.82-1.54,9.5-2.6,14.19A72.34,72.34,0,0,1,45.52,536.37Z"/><path class="cls-6" d="M205.91,144.08a5.47,5.47,0,0,1,2.92,1c7.35,5.23,14.72,10.51,21.29,16.73,4.85,3.5,8.32,8.41,12.21,12.88,4.25,5.25,7.86,11.67,7.62,18.62-.12,5.37-3.85,10-8.17,12.83-7.95,4.79-17.09,7.15-26.16,8.74C209.1,215.53,202,216.2,196,213a16.54,16.54,0,0,1-9.3-13.67c-1.06-11.62,3.51-22.72,7.76-33.29A237.27,237.27,0,0,1,205.91,144.08Zm-6.44,34.11c-1.5,4.81-2.88,10-1.59,15A10.31,10.31,0,0,0,206,200.8c6.63,1.5,13.38-.53,19.71-2.44,4.7-1.65,10.26-4.66,10.77-10.21.49-6.79-4.51-12.28-8.88-16.85a92.61,92.61,0,0,0-18-14.34A107.67,107.67,0,0,0,199.47,178.19Z"/><path class="cls-7" d="M392.65,210.25c12-23.41,32.25-42.24,56-53.31a68.66,68.66,0,0,1-2.51,21.1l-.67.25c-5.54.93-10.59,3.52-15.38,6.35-3.54,2.17-7.08,4.47-9.8,7.66l1.5.2c-4.78,3.1-9.75,6-13.77,10.11-13,13.17-20.51,30.72-24.4,48.59-1,4.25-1.06,8.71-2.77,12.77-.88-2.28-1.82-4.53-2.78-6.78s-2-4.47-3.11-6.67c-.59-1.23-1.14-2.47-1.68-3.71.28-13-1.11-26.25,2.18-39,1,5.44.27,11.15,2.12,16.41.55,1.64,2.61,3.74,4.35,2.36C387.15,222.4,389.75,216.05,392.65,210.25Z"/><path class="cls-7" d="M398,228.57c6.21-14.11,15.55-27.18,28.33-36,4.34.5,9.09.6,12.6,3.59,7.19,5.72,11.37,14.76,12.31,23.8,1.15,14.49-3.26,28.75-8.71,42-4.64,10.45-9.31,21.07-15.92,30.44.8-3.91,2.76-7.42,4.18-11.12,4.39-10.93,8-22.25,9.67-33.95,1-8.91,1.22-19.28-5.47-26.2,1.22,17.55-6.42,34.13-16,48.34a70.94,70.94,0,0,0-11.86,39.91c.54,8.43,2.67,17.43,8.92,23.53,4.11,4.07,9.8,5.72,15.25,7.11-6.24,3-13.65,2.31-19.79-.55-8.24-3.84-14.64-10.63-20.08-17.75-.86-1.35-2.43-1.79-3.85-2.26-.14.34-.43,1-.58,1.34-2.92,4.28-4.48,9.25-7,13.75-4.86,8.15-10.28,16.2-17.74,22.2a18.81,18.81,0,0,0-4.64,5.06c-8.39,6.41-18.2,10.51-27.95,14.34.17-3.3.26-7.56-3.29-9.17l-.57-.34c11.27-6.25,16.49-19.07,19.39-31,4.54-19.95,3.59-40.92-1-60.76-4.41-17.37-11.81-34.6-24.77-47.32-6.17-5.58-13.3-10.32-21.35-12.66-8.8-2.86-18.18-2-27.27-1.89-33.92,2.23-66,17.81-91.25,40.08-2.75,2.47-5.31,5.15-8.22,7.43.11-1.85-.3-4.06,1.27-5.43a204.59,204.59,0,0,1,34.16-29.81c3.12-2.51,7.34-2,11-2.77,10.79-2.19,21.86-4.82,31.07-11.14,3.09-2,4.8-6.12,8.79-6.51,22.45-4.13,46-3,67.61,4.73,1,3.82,1.86,7.67,3,11.46a104.08,104.08,0,0,0,3.94,11.25q1.27,3.08,2.73,6.07A93.76,93.76,0,0,0,356,267.5a82.4,82.4,0,0,0,19.28,13.22c2.73,1,2.15,4.28,2.62,6.57.74,8,.63,17-4.44,23.67-2.14,3-5.7,4.24-8.83,5.86,7.75.22,15.59-3.15,20.17-9.52,2-3,4.59-6.21,4.18-10a126.9,126.9,0,0,0-5-24.47c1.78-1.45,1.92-3.81,2.38-5.88A177.62,177.62,0,0,1,398,228.57Z"/><path class="cls-7" d="M78.56,237.83A104.15,104.15,0,0,1,144.08,253c5.31,3.39,10.63,7.18,17,8.09.18.65.55,1.93.73,2.57,1.16,3.89,2.14,7.83,3.35,11.7-5.17-3.7-9.83-8.09-15.34-11.29-7.76-4.53-16.11-8.39-25.07-9.67-4.71-.88-9.5-.36-14.25-.38,1.73-.35,3.44-.79,5.16-1.22-9.58-1.9-19.73-1.75-28.89,1.91a71.61,71.61,0,0,1-12.68-15.9C75.59,238.42,77.06,238.05,78.56,237.83Z"/><path class="cls-7" d="M280.08,250.66c9.56-2.11,20.05,4.09,22.7,13.54,2.61,8.79-1.47,19.13-9.76,23.29-4.12,1.76-8.8,3.15-13.25,1.83a19.86,19.86,0,0,1-14.91-14.17C261.48,264.63,269.25,252.43,280.08,250.66Zm0,12a13.32,13.32,0,0,0-8.49,12.6c.08,6.86,6.23,12.91,13.12,12.7,7.21.21,13.69-6.54,13-13.77C297.64,265.63,287.91,259.37,280.08,262.63Z"/><path class="cls-7" d="M109.89,256.14c12.32.38,24.12,5,34.43,11.58,9.51,5.6,17.43,13.36,25.62,20.65,1,1.82,2,3.61,3,5.37.36,11.53.08,23.06-.65,34.58a68.76,68.76,0,0,1-6.07-4.66c-6.31-5-14-7.8-20.89-11.86-11.24-6.28-21.73-15-27.34-26.81-2.07,7.48,2.08,14.79,6.1,20.82,7,9.55,15.85,17.57,25,25,3.57,3,7.72,5.29,10.91,8.74-4-1.18-7.38-3.62-10.91-5.72a199.15,199.15,0,0,1-23.51-16.43c-9.6-8.56-19.21-18.18-23.26-30.71-2.11-7.56-2.85-16,.5-23.35C104.25,260.13,107.27,258.2,109.89,256.14Z"/><path class="cls-7" d="M191.35,273.86c6.1-6.21,17.63-4.88,22.25,2.49,5.38,7,2.47,18.9-6,21.89l-2.1,0c3-1.75,5.82-4.32,6.32-7.93,1.3-6.28-4.66-12.55-11-11.54-6.5.58-10.79,8.33-7.75,14.13,2,4.56,7.37,6.33,12,5.56-5.31,3.28-12.36-.1-15.78-4.67C184.87,287.93,185.6,278.55,191.35,273.86Z"/><path class="cls-7" d="M184.14,340.53c.89-6.91,5-13.13,10.29-17.48-1.8,4.91-3.66,9.89-3.83,15.18-1,11.61,2.93,22.94,8.22,33.09,9.16-2.09,18.88-3.05,28-.27a40.75,40.75,0,0,1,22.86,16.53c-8.83-7.27-19.74-12.53-31.43-12.09-4.62-4.44-11.29-1.92-16.93-2.6-4.42-.44-8.85-.09-13.28-.11-.56-2.12-1.11-4.23-1.64-6.36-.61-3.24-1.15-6.5-1.79-9.74A59.05,59.05,0,0,1,184.14,340.53Z"/><path class="cls-7" d="M314.1,323.16c4.38,11.69,4,24.73,1.44,36.81a82.19,82.19,0,0,1-5.49,15.61c-1.52,3-1.08,6.48-.52,9.66L312,386c.13-2.62.24-5.23.52-7.83-.16,2.66-.1,5.33,0,8l-3.06-.28c-.05,13.89-3.6,27.92-11.08,39.7a77,77,0,0,1-4.69,6.39c-9.22,11-22.12,18.13-35.77,22.13-3.73-8.16-7.85-16.14-11.44-24.36,13.12-2.38,26.46-8.06,34.57-19.08,9-11.48,12.11-26.65,11.09-41a31.2,31.2,0,0,0,13.1-10.77C312.18,348.37,313.65,335.46,314.1,323.16Z"/><path class="cls-7" d="M385.86,359.86c-1.55-5.44-5-9.91-7.6-14.8,6.5,2,12.05,6.43,17.73,10.12-1.1,14.47-.7,29.26,2.55,43.45l-.41.41a88,88,0,0,0-15.45,19.49c-.85-2.22-3.83-4.73-1.74-7,6.91-10.29,10.63-22.81,9.56-35.23C389.83,370.63,389.19,364.63,385.86,359.86Z"/><path class="cls-7" d="M352.48,404.06c10.77.55,22-1.72,30.52-8.66-2.42,6.44-6.47,12-10.05,17.82l1.33,1.74c-11.26,4.78-23.54,7.31-35.79,5.94A86.88,86.88,0,0,0,352.48,404.06Z"/><path class="cls-7" d="M392.25,437.41a83.64,83.64,0,0,1,13.59-14.6c4.37,9.15,10.77,17.54,19.47,22.95,10.44,6.88,23.43,8.24,35.64,7.36-1.59,13.56-8.6,25.73-17.17,36.07l-.23-.05c-8-1.71-15.86-4.14-23.88-5.82l.47-.59c3.79-4.51,7.73-9.46,8.31-15.55.73-5.36-2-10.42-4.95-14.65-6.21-8.28-17.76-10.85-27.47-8.46-.67-1.37-1.13-3.12-2.81-3.51C392.92,439.49,392.58,438.44,392.25,437.41Z"/><path class="cls-7" d="M352,486.17a52.78,52.78,0,0,1,10.59,3,74.17,74.17,0,0,0,20.11,22.61,112.89,112.89,0,0,0,18.17,11.12,19.67,19.67,0,0,1-6.43,9.37,37.94,37.94,0,0,1-17.63,4.29c-2.19,2.64-4.2,6.58-8.13,6.55a13.37,13.37,0,0,1-8.53-5.25c-.35-1.3.58-2.49.9-3.7,2.06-.76,5.08-1.37,5.29-4.06v-1.52l-2.69-.49a36.9,36.9,0,0,1-6.23-3.77c.32-1,.66-2.06,1-3.08-1.49.57-3,1.12-4.42,1.76A84.37,84.37,0,0,0,341,516.86a55.05,55.05,0,0,0,4.84-4.7,20,20,0,0,0-7,3.26,72.34,72.34,0,0,1-10.72-5,78.72,78.72,0,0,1,10.56-9.84c-4-1.55-9.89-1.24-11.1-6.35,6.52,1,13.54,3.67,19.9.52C350.66,493.2,351.16,489.29,352,486.17Zm-12.1,13.53c2.53,3.29,6,5.61,9.2,8.21a192.71,192.71,0,0,0,22.31,15.62c3.19,1.47,6.64,3.48,10.28,2.77,2.36-.75,2.14-3.82,1.55-5.72-2.08-6-6.51-10.64-10.55-15.34a52.81,52.81,0,0,0-8.82-8.14c-2-1.54-4.44-3.12-7.13-2.74C350.76,494.7,345.38,497.53,339.91,499.7Z"/><path class="cls-7" d="M288.72,518.38c12.37,1.58,24.79-.26,37-2.23-.54,2.45-1.48,4.88-1.46,7.43,3.47,5.92,9.8,9.42,15.89,12.13-3.54,1.88-7.59,4.06-11.7,2.84-3.28-1.45.37-5,.83-7.2a29.48,29.48,0,0,1-7.14.39c.48-2.32,1-4.63,1.45-7-11.16-1.13-22.29-2.58-33.47-3.48C289.66,520.32,289.19,519.34,288.72,518.38Z"/><path class="cls-8" d="M421.83,192.5A35.1,35.1,0,0,1,432,188.34c-1.82,1.5-3.72,2.89-5.66,4.21-12.78,8.84-22.12,21.91-28.33,36a177.62,177.62,0,0,0-11.57,38.37c-.46,2.07-.6,4.43-2.38,5.88-.75-2.21-1.57-4.38-2.33-6.57-.21-.57-.61-1.71-.81-2.28,1.71-4.06,1.81-8.52,2.77-12.77,3.89-17.87,11.43-35.42,24.4-48.59C412.08,198.51,417.05,195.6,421.83,192.5Z"/><path class="cls-8" d="M110.53,254c4.75,0,9.54-.5,14.25.38,9,1.28,17.31,5.14,25.07,9.67,5.51,3.2,10.17,7.59,15.34,11.29,1.67,4.32,3.42,8.61,4.75,13.05-8.19-7.29-16.11-15.05-25.62-20.65-10.31-6.54-22.11-11.2-34.43-11.58-2.43-.1-4.84-.2-7.25-.4A38.51,38.51,0,0,1,110.53,254Z"/><path class="cls-8" d="M218.26,375.49c11.69-.44,22.6,4.82,31.43,12.09.82,1.16,1.56,2.38,2.31,3.6-9.42-4-18.92-8.43-29.28-9.2A76.06,76.06,0,0,0,218.26,375.49Z"/><path class="cls-9" d="M325.24,209.58c17.81,6.59,34.31,17.7,45.68,33.06a20.11,20.11,0,0,1-7.23-3.4,300.46,300.46,0,0,0-29.6-16.4,26.14,26.14,0,0,0-5.86-1.8C327.1,217.25,326.23,213.4,325.24,209.58Z"/><path class="cls-9" d="M284.23,223.83c4.87,0,9.79,2.58,14.21,4.76,1.73,1.19,4.39,1.77,4.93,4.09,3.24,2.42,5,6.22,3.87,10.27-10.46-2.06-21.06-4-31.76-3.39C276.89,233.58,280.28,228.43,284.23,223.83Z"/><path class="cls-9" d="M332.17,232.29c11.92,5.11,23.55,10.87,35.39,16.16,2.37,1,4.76,2.46,7.44,2.07,1.08,2.2,2.18,4.4,3.11,6.67l-.42,1.22c-11.1-2.92-21.51-8.13-31.52-13.66-3.9-1.91-6.79-5.79-11.27-6.39Q333.45,235.36,332.17,232.29Z"/><path class="cls-9" d="M186.76,254.16l.24.08a27.24,27.24,0,0,1,13.1,7.55,95.24,95.24,0,0,0-20.87,15.44,5.49,5.49,0,0,1-2.69-6C177,264.28,182,258.86,186.76,254.16Z"/><path class="cls-9" d="M381.7,266.25c.76,2.19,1.58,4.36,2.33,6.57a126.9,126.9,0,0,1,5,24.47c.41,3.8-2.19,7-4.18,10-4.58,6.37-12.42,9.74-20.17,9.52,3.13-1.62,6.69-2.87,8.83-5.86,5.07-6.69,5.18-15.67,4.44-23.67-.47-2.29.11-5.6-2.62-6.57A82.4,82.4,0,0,1,356,267.5C364.55,266.75,373.35,268.82,381.7,266.25Z"/><path class="cls-10" d="M328.23,221a26.14,26.14,0,0,1,5.86,1.8,300.46,300.46,0,0,1,29.6,16.4,20.11,20.11,0,0,0,7.23,3.4,39.9,39.9,0,0,1,2.4,4.17c.54,1.24,1.09,2.48,1.68,3.71-2.68.39-5.07-1.1-7.44-2.07-11.84-5.29-23.47-11-35.39-16.16A104.08,104.08,0,0,1,328.23,221Z"/><path class="cls-10" d="M282.15,223.29l2.08.54c-4,4.6-7.34,9.75-8.75,15.73l-1.35-.27c-2.14-.47-4.3-.86-6.45-1.16a24.61,24.61,0,0,1,5.42-13.51C276,223.61,279.17,224,282.15,223.29Z"/><path class="cls-10" d="M334.9,238.36c4.48.6,7.37,4.48,11.27,6.39,10,5.53,20.42,10.74,31.52,13.66l.42-1.22c1,2.25,1.9,4.5,2.78,6.78.2.57.6,1.71.81,2.28-8.35,2.57-17.15.5-25.69,1.25A93.76,93.76,0,0,1,334.9,238.36Z"/><path class="cls-10" d="M204.1,245.69c5.2,1.33,8.71,6.14,10.52,10.94a54.8,54.8,0,0,0-14.52,5.16,27.24,27.24,0,0,0-13.1-7.55,28.71,28.71,0,0,1,10.82-6.4c1.41-.7,2.58.77,3.73,1.39l-.72-2.61c2.82.71,5.26,2.34,7.88,3.53A43.18,43.18,0,0,1,204.1,245.69Z"/><path class="cls-11" d="M268.28,223.74a34,34,0,0,1,13.87-.45c-3,.66-6.19.32-9,1.33a24.61,24.61,0,0,0-5.42,13.51c2.15.3,4.31.69,6.45,1.16-3.74.43-7.49.83-11.19,1.53,3-3.63,3-8.65,3.53-13.11A22.21,22.21,0,0,1,268.28,223.74Z"/><path class="cls-12" d="M256.93,242.51c-.23-6.24-.17-13.88,5.39-18-1,2.56-2.26,5-2.52,7.8,1.89-2.88,3.05-6.49,6.3-8.22.09.9.28,2.69.37,3.59-.53,4.46-.5,9.48-3.53,13.11A34,34,0,0,1,256.93,242.51Z"/><path class="cls-13" d="M237,227.26c3.52,6.19,5.17,13.75,3.36,20.75-.9,3.17-3.06,6.71-6.63,7.11-4.29.68-8-2.33-10.45-5.47a27.46,27.46,0,0,1-5.7-16.87c2.72,3.72,4.72,8.73,9.59,10.1,0-4.79-.7-9.54-.81-14.32,3.71,3.15,4.94,8.31,8.28,11.8C238,237.1,237.09,231.56,237,227.26Z"/><path class="cls-14" d="M280.08,262.63c7.83-3.26,17.56,3,17.58,11.53.74,7.23-5.74,14-13,13.77-6.89.21-13-5.84-13.12-12.7A13.32,13.32,0,0,1,280.08,262.63Zm-4.53,11.74c1.43,1.31,5.08,1.92,5.32-.81a8.21,8.21,0,0,1,1.25,3.58c2.12,2,5.36-1.22,3-3.17a11.5,11.5,0,0,1-3-1.62c1.33-3.12-2.61-6.45-5.48-4.89A4.16,4.16,0,0,0,275.55,274.37Z"/><path class="cls-14" d="M193,292.87c-3-5.8,1.25-13.55,7.75-14.13,6.34-1,12.3,5.26,11,11.54-.5,3.61-3.33,6.18-6.32,7.93l-.39.22C200.39,299.2,195.05,297.43,193,292.87Zm.95-6.73c0,2.21,2.45,2.88,4.22,3.15l.52-1.76a19,19,0,0,1,1.78,3.29,3.11,3.11,0,0,0,2.9-1.57c-1.59-1.39-3.25-2.81-3.71-5C198.33,281.17,193.53,283.08,194,286.14Z"/><path class="cls-15" d="M275.55,274.37a4.16,4.16,0,0,1,1.07-6.91c2.87-1.56,6.81,1.77,5.48,4.89a11.5,11.5,0,0,0,3,1.62c2.37,1.95-.87,5.2-3,3.17a8.21,8.21,0,0,0-1.25-3.58C280.63,276.29,277,275.68,275.55,274.37Z"/><path class="cls-16" d="M194,286.14c-.44-3.06,4.36-5,5.71-1.88.46,2.18,2.12,3.6,3.71,5a3.11,3.11,0,0,1-2.9,1.57,19,19,0,0,0-1.78-3.29l-.52,1.76C196.42,289,194,288.35,194,286.14Z"/><path class="cls-17" d="M241,304.65c13.09-2.18,26.61,2.26,36.83,10.46A58.78,58.78,0,0,1,296.08,337c1.54,4,3.41,8.77,1.38,13-1.29,3.36-5,4.64-8.06,5.79A73.22,73.22,0,0,1,270.7,358c-17,.06-34-.16-51-.1-7.08-.81-15.25-.52-20.81-5.71-3.74-3.22-2.58-8.83-1.09-12.89,4.69-11.34,13.6-20.59,23.9-27.07A47.94,47.94,0,0,1,241,304.65Z"/><path class="cls-18" d="M180.38,360c1.39-1.12,2.81-2.21,4.24-3.28.64,3.24,1.18,6.5,1.79,9.74a28.3,28.3,0,0,0-3.81-4.84Q181.49,360.74,180.38,360Z"/><path class="cls-18" d="M322.15,373.7l.21-.6c2.14,3.43,2,8.48,5.65,10.7-.31,3.19-3.11,3.89-5.87,3.67A32,32,0,0,1,322.15,373.7Z"/><path class="cls-19" d="M315.54,360l4.31,2.94c-.69.54-1.36,1.1-2,1.67-3.48,3.63-4.7,8.71-5.31,13.55-.28,2.6-.39,5.21-.52,7.83l-2.47-.72c-.56-3.18-1-6.66.52-9.66A82.19,82.19,0,0,0,315.54,360Z"/><path class="cls-20" d="M385.86,359.86c3.33,4.77,4,10.77,4.64,16.39,1.07,12.42-2.65,24.94-9.56,35.23-2.09,2.32.89,4.83,1.74,7,3.2,6.29,6.43,12.56,9.57,18.88.33,1,.67,2.08,1,3.15.41,1.76.81,3.54,1.25,5.31-1.56,1.89-3.08,3.81-4.71,5.64A81.19,81.19,0,0,0,374.28,415L373,413.22c3.58-5.8,7.63-11.38,10.05-17.82A53,53,0,0,0,385.86,359.86Z"/><path class="cls-21" d="M317.83,364.58c.66-.57,1.33-1.13,2-1.67,1.93,1.33,3.92,2.56,6,3.71l.57.34a41.3,41.3,0,0,0-4,6.14l-.21.6A33.77,33.77,0,0,1,317.83,364.58Z"/><path class="cls-22" d="M3,366.15c6.76-1.78,13.79-1.94,20.72-2.16,24.35-.21,48.66,1.54,72.94,3.11,20.61,1.5,41.24,2.82,61.84,4.5a21.55,21.55,0,0,1,1-2.07c.13.55.4,1.64.53,2.19l1.87-.05c5.88.28,11.76.72,17.65.86h.09c2.82.13,5.65.2,8.48.24,4.43,0,8.86-.33,13.28.11C231.59,439.15,262.66,505,293.14,571.2l-.56,1.09C199.48,506.85,106.83,440.73,13.86,375.1,10.2,372.16,5.6,370.21,3,366.15Z"/><path class="cls-23" d="M167.17,368.89a80.63,80.63,0,0,0,7.19-4.19,26.31,26.31,0,0,1,5.12,7.83c-5.89-.14-11.77-.58-17.65-.86C163.63,370.79,165.4,369.85,167.17,368.89Z"/><path class="cls-24" d="M0,368.58c.54-1.27,1.92-1.73,3-2.43,2.62,4.06,7.22,6,10.88,9,93,65.63,185.62,131.75,278.72,197.19l.56-1.09c.26.59.79,1.77,1.05,2.37-2.61-.21-5.2-.51-7.79-.79-6.58-.8-13.18-1.37-19.76-2-43.44-4.84-86.94-9.15-130.38-14-10.1-1-20.18-2.22-30.28-3.14-10.06-1.36-20.2-2-30.25-3.33a5.16,5.16,0,0,1-4.55-3.42c-2.28-5.27-4.16-10.71-6.52-15.94q-1.8-4.74-3.85-9.37c-2.05-6-4.58-11.86-7-17.76Q28.15,439.18,2.2,374.63C1.47,372.61.32,370.71,0,368.58Z"/><path class="cls-25" d="M161.07,366.58a22.64,22.64,0,0,1,6.1,2.31c-1.77,1-3.54,1.9-5.34,2.78l-1.87.05c-.13-.55-.4-1.64-.53-2.19l-.12-.51Z"/><path class="cls-26" d="M326.38,367c3.55,1.61,3.46,5.87,3.29,9.17A60.92,60.92,0,0,1,328,383.8c-3.69-2.22-3.51-7.27-5.65-10.7A41.3,41.3,0,0,1,326.38,367Z"/><path class="cls-27" d="M201.33,372.89c5.64.68,12.31-1.84,16.93,2.6a76.06,76.06,0,0,1,4.46,6.49c1.92,3.35,3.71,6.78,5.57,10.17q3.6,7.49,7.35,14.89c3.45,7.63,7.07,15.17,10.8,22.67,3.59,8.22,7.71,16.2,11.44,24.36,10.28,21.43,20.27,43,30.84,64.31.47,1,.94,1.94,1.4,2.93,5.47,12,11.48,23.67,17.08,35.57,47.29-1.31,94.58-3,141.88-4.51,0,2.52.78,5.75-1.7,7.44-4.5,3.25-10.25,3.84-15.59,4.59-17.65,1.49-35.38,1.68-53.07,2.57-24.45,1.78-48.86,4-73.3,6.06l-3,.27a75.15,75.15,0,0,1-8.21.27c-.26-.6-.79-1.78-1.05-2.37C262.66,505,231.59,439.15,201.33,372.89Z"/><path class="cls-28" d="M228.29,392.15c5.81,2,11.21,8.88,7.35,14.89Q231.88,399.65,228.29,392.15Z"/><path class="cls-29" d="M353.74,398.26a2.2,2.2,0,0,1,2.64-1.4c-1.25,2.42-2.5,4.86-3.9,7.2a86.88,86.88,0,0,1-14,16.84c-2.51,2.25-5.18,4.32-7.79,6.46,2.58,3.23,5.28,6.65,6,10.84a18.91,18.91,0,0,1-8.35,19.65A20.23,20.23,0,0,1,308.79,459a19.69,19.69,0,0,1-11.46-17.69,47.41,47.41,0,0,1,1.47-8.11l-5.15-1.28a77,77,0,0,0,4.69-6.39c2.26.53,4.73,1.42,7,.3,4.43-2,9.18-4.54,14.22-3.3,2.28.32,4.73,1.91,6.91.42A74.71,74.71,0,0,0,353.74,398.26Zm-38.68,33.29a11.21,11.21,0,0,0-8.39,8.69c-1.39,8,8.85,14.9,15.71,10.58,2.88-1.88,5.53-5,5.4-8.6C328.37,435.69,321.16,430.21,315.06,431.55Z"/><path class="cls-30" d="M393.22,440.56c1.68.39,2.14,2.14,2.81,3.51l-1.56,1.8C394,444.1,393.63,442.32,393.22,440.56Z"/><path class="cls-31" d="M400.88,522.88a153.2,153.2,0,0,0,30.44-21.19c5.45,1.45,10.89,2.92,16.23,4.75l-.25.28-.66.76c3.76,2.9,8.17,4.93,11.48,8.4,4.17,3.81,5.79,9.41,8.92,14,2.88,4.66,7,8.33,10.85,12.17,2.46,2.33,5.28,4.72,8.77,5.15a23.84,23.84,0,0,0,5.56-3.54,35.74,35.74,0,0,1,1.31,11.46,37.81,37.81,0,0,1-1.33,9.28l-.48-2.49c-3.16,3.29-5.72,7.16-9.26,10.09-14,12.32-32.53,17.89-50.63,20.63-23.3,3-46.8,4.09-70.19,6.28-9.17.81-18.41,1-27.54,2.21-8.38-10.49-18.65-19.21-28.68-28.06,24.44-2,48.85-4.28,73.3-6.06,17.69-.89,35.42-1.08,53.07-2.57,5.34-.75,11.09-1.34,15.59-4.59,2.48-1.69,1.7-4.92,1.7-7.44-.2-4.24,1-9.07-1.8-12.73-2.49-3.22-7.11-1.82-10.61-2.5-14.07-1.61-28.2-2.88-42.22-4.89A19.67,19.67,0,0,0,400.88,522.88Z"/><path class="cls-31" d="M142.49,570.44c-2.61-4.25-5.82-8.55-6.23-13.67,43.44,4.82,86.94,9.13,130.38,14C272.55,581.21,278,592,282.85,603c-8.37-.61-16.75.54-25.13.08-25.7-1-51.69-.46-76.93-6.11C165.42,593.18,150.82,584.15,142.49,570.44Z"/><path class="cls-32" d="M51.24,508.37a33.23,33.23,0,0,1,2.62-4.56c2.37,5.9,4.9,11.73,7,17.76-2.59-3.22-5-6.58-7.77-9.63A6.24,6.24,0,0,1,51.24,508.37Z"/><path class="cls-33" d="M446.64,507.48l.66-.76a91.21,91.21,0,0,1,25.82,12.19c8.67,6,16.5,14.27,19.1,24.72a23.84,23.84,0,0,1-5.56,3.54c-3.49-.43-6.31-2.82-8.77-5.15-3.85-3.84-8-7.51-10.85-12.17-3.13-4.56-4.75-10.16-8.92-14C454.81,512.41,450.4,510.38,446.64,507.48Z"/><path class="cls-33" d="M106,553.63c10.1.92,20.18,2.12,30.28,3.14.41,5.12,3.62,9.42,6.23,13.67,8.33,13.71,22.93,22.74,38.3,26.48C206,602.57,232,602.07,257.72,603c8.38.46,16.76-.69,25.13-.08,1.53,3.49,3,7,4.59,10.48-27.23,1.38-54.38,4.19-81.65,4.56-20.63.25-41.68-.78-61.36-7.49-12.62-4.44-24.83-11-34.05-20.88A48.24,48.24,0,0,1,97.65,562.3,81.25,81.25,0,0,0,106,553.63Z"/><path class="cls-33" d="M482.46,572c3.54-2.93,6.1-6.8,9.26-10.09l.48,2.49c-4,15.1-17.6,25.06-31.23,31.08-18.35,8.06-38.3,11.57-58.08,13.91A507,507,0,0,1,341,612.17a58.67,58.67,0,0,0-6.94-11.08c9.13-1.2,18.37-1.4,27.54-2.21,23.39-2.19,46.89-3.31,70.19-6.28C449.93,589.86,468.47,584.29,482.46,572Z"/><path class="cls-34" d="M338.75,515.42a20,20,0,0,1,7-3.26,55.05,55.05,0,0,1-4.84,4.7c-3.66,4.1-6.15,9.2-10.46,12.71C331.86,524.19,335.21,519.58,338.75,515.42Z"/><path class="cls-35" d="M290.12,521.31c11.18.9,22.31,2.35,33.47,3.48-.47,2.32-1,4.63-1.45,7a29.48,29.48,0,0,0,7.14-.39c-.46,2.24-4.11,5.75-.83,7.2,4.11,1.22,8.16-1,11.7-2.84a88.75,88.75,0,0,0,9.48-6.61c-1.68,2.4-3.46,4.73-5.14,7.13a14.59,14.59,0,0,0-2.17,6.17c5-.5,9.39-3.31,13.54-6a64.31,64.31,0,0,1,5.73-3.77l-.53,1.5c-.32,1.21-1.25,2.4-.9,3.7a13.37,13.37,0,0,0,8.53,5.25c3.93,0,5.94-3.91,8.13-6.55a37.94,37.94,0,0,0,17.63-4.29c14,2,28.15,3.28,42.22,4.89,3.5.68,8.12-.72,10.61,2.5,2.79,3.66,1.6,8.49,1.8,12.73-47.3,1.48-94.59,3.2-141.88,4.51C301.6,545,295.59,533.27,290.12,521.31Z"/><path class="cls-36" d="M354,523c1.45-.64,2.93-1.19,4.42-1.76-.34,1-.68,2-1,3.08a16.56,16.56,0,0,1-6,3.1A33,33,0,0,1,354,523Z"/><path class="cls-37" d="M363.66,528.07l2.69.49v1.52c-1.67.95-3.37,1.87-5.12,2.69A17.77,17.77,0,0,1,363.66,528.07Z"/><path class="cls-38" d="M64.66,530.94c2.36,5.23,4.24,10.67,6.52,15.94a5.16,5.16,0,0,0,4.55,3.42c10,1.36,20.19,2,30.25,3.33a81.25,81.25,0,0,1-8.33,8.67c-4.57,3.68-9.93,7-15.93,7.23-6,.07-11.59-2.7-16.24-6.26l-2.37-1.9c1.06-4.69,2.34-9.37,2.6-14.19C66.09,541.74,65.22,536.33,64.66,530.94Z"/><path class="cls-39" d="M342.32,542.4a14.59,14.59,0,0,1,2.17-6.17c3.78.21,7.58.31,11.37.18C351.71,539.09,347.36,541.9,342.32,542.4Z"/><path class="cls-40" d="M493.53,555.09A488,488,0,0,1,553,565.81c10.79,3,21.8,6,31.58,11.61,4.25,2.7,9.64,6.09,9.54,11.79-.45,5.56-5.63,8.93-10,11.55-12.23,6.65-25.89,10-39.3,13.3-39.27,8.65-79.38,12.72-119.43,15.66-53.14,3.94-106.46,4.44-159.72,3.73-48.07-1.06-96.15-3.69-143.89-9.6-22.21-2.75-44.35-6.29-66.07-11.72-10.29-2.73-20.61-5.75-30.11-10.65C21.3,599,16.49,596.2,14.7,591.24c-1.29-3.55.76-7.37,3.43-9.68,6.19-5.36,14-8.29,21.6-11,8.38-3.08,17.16-4.86,25.75-7.24,4.65,3.56,10.26,6.33,16.24,6.26,6-.27,11.36-3.55,15.93-7.23a48.24,48.24,0,0,0,12.73,27.32c9.22,9.86,21.43,16.44,34.05,20.88,19.68,6.71,40.73,7.74,61.36,7.49,27.27-.37,54.42-3.18,81.65-4.56,17.84-1,35.73-1.62,53.6-1.26a507,507,0,0,0,61.85-2.81c19.78-2.34,39.73-5.85,58.08-13.91,13.63-6,27.24-16,31.23-31.08A37.81,37.81,0,0,0,493.53,555.09Z"/><path class="cls-41" d="M266.64,570.74c6.58.67,13.18,1.24,19.76,2,8.05,9.87,16.48,19.43,24.72,29.15.81,1.19,2.4.57,3.59.66,5.39-.46,10.81-.3,16.22-.54A17.35,17.35,0,0,0,328,598q-7.78-7.77-15.56-15.55c-3.2-3.22-7-5.75-10.06-9.13l3-.27c10,8.85,20.3,17.57,28.68,28.06A58.67,58.67,0,0,1,341,612.17c-17.87-.36-35.76.24-53.6,1.26-1.61-3.46-3.06-7-4.59-10.48C278,592,272.55,581.21,266.64,570.74Z"/></g></g></svg>